<?xml version="1.0" encoding="UTF-8"?>
<!DOCTYPE svg PUBLIC "-//W3C//DTD SVG 1.1//EN" "http://www.w3.org/Graphics/SVG/1.1/DTD/svg11.dtd">
<!-- Creator: CorelDRAW -->
<svg xmlns="http://www.w3.org/2000/svg" xml:space="preserve" width="21.5896mm" height="16.7273mm" version="1.1" style="shape-rendering:geometricPrecision; text-rendering:geometricPrecision; image-rendering:optimizeQuality; fill-rule:evenodd; clip-rule:evenodd"
viewBox="0 0 79.37 61.5"
 xmlns:xlink="http://www.w3.org/1999/xlink"
 xmlns:xodm="http://www.corel.com/coreldraw/odm/2003">
 <defs>
  <style type="text/css">
   <![CDATA[
    .fil0 {fill:#91D2C8;fill-rule:nonzero}
   ]]>
  </style>
 </defs>
 <g id="Camada_x0020_1">
  <metadata id="CorelCorpID_0Corel-Layer"/>
  <path class="fil0" d="M61.61 35.81c0,7.35 1.41,21.35 6.26,21.35 3,0 2.88,-6.33 7.48,-6.33 2.3,0 4.03,1.53 4.03,4.03 0,6.01 -7.28,6.65 -10.22,6.65 -15.47,0 -19.49,-13.04 -19.49,-25.5l0 -16.55c0,-0.32 0,-2.68 -0.45,-2.68 -0.45,0 -1.02,2.17 -1.09,2.49l-6.01 21.28c-0.77,2.68 -3.19,4.35 -5.94,4.35 -2.68,0 -5.05,-1.72 -5.88,-4.35l-6.39 -21.22c-0.13,-0.32 -0.7,-2.43 -1.21,-2.43 -0.51,0 -0.45,2.43 -0.45,2.68l0 16.23c0,4.15 2.56,6.13 2.56,7.86 0,1.02 -1.28,1.21 -2.05,1.21l-7.48 0c-0.77,0 -2.11,-0.19 -2.11,-1.21 0,-1.73 2.62,-3.71 2.62,-7.86l0 -26.78c0,-1.66 -0.13,-4.66 -2.43,-4.66 -3.83,0 -1.22,10.29 -7.99,10.29 -3.13,0 -5.37,-2.36 -5.37,-5.5 0,-6.78 9.97,-9.01 15.27,-9.01l8.05 0c5.43,0 9.84,3.51 11.57,8.56l3.51 10.48c0.19,0.64 0.83,2.43 1.79,2.43 0.89,0 1.47,-1.85 1.72,-2.49 2.43,-8.31 3.58,-18.98 14.57,-18.98 1.02,0 7.67,-0.77 7.67,1.21 0,1.72 -2.56,3.71 -2.56,7.67l0 26.78z"/>
 </g>
</svg>
